<?xml version="1.0" standalone="no"?>
<!DOCTYPE svg PUBLIC "-//W3C//DTD SVG 20010904//EN"
 "http://www.w3.org/TR/2001/REC-SVG-20010904/DTD/svg10.dtd">
<svg version="1.0" xmlns="http://www.w3.org/2000/svg"
 width="75.000000pt" height="75.000000pt" viewBox="0 0 75.000000 75.000000"
 preserveAspectRatio="xMidYMid meet">

<g transform="translate(0.000000,75.000000) scale(0.100000,-0.100000)"
fill="#AA0000" stroke="none">
<path d="M100 471 l0 -89 -34 -12 c-24 -7 -33 -16 -29 -25 4 -12 9 -12 34 1
l29 15 0 -61 c0 -33 4 -60 10 -60 6 0 10 60 10 160 0 100 -4 160 -10 160 -6 0
-10 -36 -10 -89z"/>
<path d="M223 547 c-98 -14 -96 -32 2 -23 42 4 82 9 90 12 17 7 10 25 -8 22
-7 -1 -45 -6 -84 -11z"/>
<path d="M410 520 c0 -16 5 -30 10 -30 6 0 10 11 10 25 0 24 2 25 65 25 58 0
65 -2 65 -20 0 -17 -7 -20 -57 -22 l-58 -1 55 -6 c40 -4 55 -10 55 -21 0 -11
-13 -16 -47 -18 l-48 -3 0 -49 0 -49 48 -3 c34 -2 47 -7 47 -18 0 -12 -18 -16
-80 -20 l-80 -6 80 -4 c79 -5 80 -5 83 -32 4 -37 22 -36 22 2 l0 29 78 4 77 3
-77 2 c-71 2 -78 4 -78 22 0 17 7 20 45 20 l45 0 0 50 0 50 -45 0 c-38 0 -45
3 -45 19 0 17 8 21 53 24 l52 3 -52 2 c-46 2 -53 5 -53 22 0 18 7 20 60 20 57
0 60 -1 60 -25 0 -14 5 -25 10 -25 6 0 10 14 10 30 l0 30 -155 0 -155 0 0 -30z
m150 -95 c0 -11 -11 -15 -40 -15 -29 0 -40 4 -40 15 0 11 11 15 40 15 29 0 40
-4 40 -15z m90 0 c0 -10 -11 -15 -35 -15 -24 0 -35 5 -35 15 0 10 11 15 35 15
24 0 35 -5 35 -15z m-90 -50 c0 -11 -11 -15 -40 -15 -29 0 -40 4 -40 15 0 11
11 15 40 15 29 0 40 -4 40 -15z m90 0 c0 -10 -11 -15 -35 -15 -24 0 -35 5 -35
15 0 10 11 15 35 15 24 0 35 -5 35 -15z"/>
<path d="M48 504 c-9 -8 12 -64 24 -64 6 0 7 11 3 28 -7 30 -18 45 -27 36z"/>
<path d="M301 484 c-15 -34 -2 -54 15 -23 7 13 13 30 14 37 0 21 -16 13 -29
-14z"/>
<path d="M224 484 c3 -9 6 -20 6 -25 0 -5 7 -9 15 -9 18 0 18 5 5 31 -13 23
-35 26 -26 3z"/>
<path d="M166 482 c-9 -15 6 -51 19 -46 7 3 11 14 8 25 -6 23 -19 33 -27 21z"/>
<path d="M287 410 c-5 -18 -14 -20 -76 -20 -41 0 -71 -4 -71 -10 0 -6 32 -10
75 -10 l75 0 0 -50 c0 -43 -3 -52 -22 -59 -20 -8 -21 -10 -5 -16 35 -15 47 1
47 65 0 57 1 60 25 60 14 0 25 5 25 10 0 6 -11 10 -25 10 -18 0 -25 5 -25 20
0 11 -4 20 -9 20 -5 0 -11 -9 -14 -20z"/>
<path d="M190 342 c0 -18 28 -45 39 -38 9 6 8 13 -5 27 -18 20 -34 25 -34 11z"/>
</g>
</svg>
